<svg width="32" height="32" viewBox="0 0 32 32" fill="none" xmlns="http://www.w3.org/2000/svg">
<g clip-path="url(#clip0_1000_135)">
<path d="M30 0H2C0.895431 0 0 0.895431 0 2V30C0 31.1046 0.89543 32 2 32H30C31.1046 32 32 31.1046 32 30V2C32 0.895431 31.1046 0 30 0Z" fill="#B61E22"/>
<path d="M4.80005 2.6665V15.1914L6.35646 15.1002V10.4733H9.70684V15.1002H11.1658V2.6665H9.70684V7.34509H6.35646V2.6665H4.80005Z" fill="white"/>
<path d="M12.7465 2.6665V15.1002H17.5101L18.5914 11.9294H14.312L14.2876 10.4733H16.9679L18.2624 7.34509H14.2633V5.88588H17.3669L18.5914 2.6665H12.7465Z" fill="white"/>
<path d="M19.7335 15.1001V8.92883L24.6799 8.89843C24.6799 8.89843 25.551 8.80114 25.551 7.34498C25.551 5.88881 24.6373 5.88881 24.6373 5.88881H19.7335C19.7335 5.88881 20.297 2.66943 21.2564 2.66943H24.3906C24.3906 2.66943 27.0465 2.70895 27.0465 5.88881V7.34498C27.0465 7.34498 27.1622 10.2877 25.6576 11.3882L27.7288 15.1001H25.4718L23.7266 11.9293H21.2564V15.1001H19.7335Z" fill="white"/>
<path d="M4.80005 29.1109V16.6772H10.6419L9.29261 19.8966H6.33209V21.3558H10.0815L9.25911 24.484H6.33209V29.1109H4.80005Z" fill="white"/>
<path d="M21.1895 29.1109V16.6772H22.4839L26.0719 23.5142V16.6772H27.3633V29.1109H26.0719L22.4839 22.3438V29.1109H21.1895Z" fill="white"/>
<path d="M19.4351 22.9091V21.0546C19.4351 21.0546 19.7641 16.4277 15.6431 16.4277C11.5221 16.4277 11.5251 21.0546 11.5251 21.0546V24.4838C11.5251 24.4838 11.5252 29.1107 15.6431 29.1107C19.761 29.1107 19.4351 24.4838 19.4351 24.4838V22.9091ZM18.0858 23.5323C18.0858 23.5323 18.031 26.3139 15.5517 26.3291C13.0724 26.3443 13.0176 23.5323 13.0176 23.5323V22.0122C13.0176 22.0122 13.0724 19.2306 15.5517 19.2154C18.031 19.2002 18.0858 22.0122 18.0858 22.0122V23.5323Z" fill="white"/>
</g>
<defs>
<clipPath id="clip0_1000_135">
<rect width="32" height="32" fill="white"/>
</clipPath>
</defs>
</svg>
